<?xml version="1.0" encoding="utf-8"?>
<!-- Generator: Adobe Illustrator 27.9.0, SVG Export Plug-In . SVG Version: 6.00 Build 0)  -->
<svg version="1.1" id="Layer_1" xmlns="http://www.w3.org/2000/svg" xmlns:xlink="http://www.w3.org/1999/xlink" x="0px" y="0px"
	 viewBox="0 0 1200.05 473.53" style="enable-background:new 0 0 1200.05 473.53;" xml:space="preserve">
<style type="text/css">
	.st0{fill:url(#SVGID_1_);}
	.st1{fill:url(#SVGID_00000137847431837288369390000013420783566136927880_);}
	.st2{fill:#FFFFFF;}
	.st3{fill:url(#SVGID_00000070808278401535240990000016466175820530194565_);}
	.st4{fill:url(#SVGID_00000106138813468377991260000004021579422042646657_);}
</style>
<g>
	<polygon class="st2" points="758.61,282.39 766.49,278.21 788.32,305.53 780.18,315 764.5,319.55 756.32,306.53 	"/>
	<polygon class="st2" points="486.87,255.95 480.06,248.12 453.32,269.53 457.4,280.27 474.81,288.82 487.32,277.53 	"/>
	<polygon class="st2" points="774.38,267.49 781.53,264.01 796,264.01 807.06,265.3 814.32,270.53 814.32,276.64 809.32,278.53 
		804.31,280.55 819.15,292.79 825.32,302.53 823.85,315.96 814.32,320.53 806.21,320.53 801.32,322.53 785.95,313.15 770.3,300.84 
		763.56,291.1 764.5,277.15 	"/>
	<polygon class="st2" points="444.32,225.53 462.32,228.53 474.32,235.53 481.95,246.15 481.95,259.79 474.32,268.53 453.32,277.53 
		437.32,281.53 429.32,276.53 424.32,276.53 418.47,272.29 413.32,266.53 416,262.53 416.59,255.03 429.02,246.15 444.32,242.53 
		440.32,237.53 434.98,233.15 437.53,227.47 	"/>
	<polygon class="st2" points="518.63,252.04 528.32,235.53 578.87,220.01 670.32,217.53 716.34,253.11 724.25,267.49 725.46,273.73 
		734.98,300.84 751.06,345.69 743.01,352.81 708.94,344.55 700.32,296.53 691.32,325.53 689.47,329.73 684.32,338.53 683.34,343.4 
		662.32,354.53 631.44,354.53 549.63,344.95 544.32,320.53 541.51,315.96 536.14,319.12 524.32,320.53 488.32,324.53 479.17,322.41 
		471.32,309.53 490.32,273.53 511.32,292.53 505.54,274.09 507.64,270.55 	"/>
	<path class="st2" d="M598.87,75.7l-40.71,22.98l-1.85,15.85l-8.11,5.83l-6.7,5.43l-4.05,12.46l2.46,20.06l8.41,15.46l6.9,6.82
		l5.27,1.04l13.62,28.22l18.99,18.78l5.5,30.37c0,0,5.71,3.52,14.71,3.52c11.38,0,40.91-25.98,40.91-25.98l14.09-18.02l13-4
		l16.37,3.38l36.63-12.38l12.91-33.44l-29.11-67.86L638.39,75.7l-20.08-10.17L598.87,75.7z"/>
	<path class="st2" d="M639.02,208.79c-2.81-2.87-6.64-4.17-10.5-3.77c-4.94,0.32-9.28,3.32-13.73,5.19
		c-7.67,3.13-16.52-0.43-19.6-7.94c5.03,5.04,11.78,7.11,18.17,4.26c2.71-1.21,5.64-2.95,8.5-3.81
		C628.02,200.65,636.45,202.16,639.02,208.79z M649.72,163.65c2.09-5.75,5.34-10.71,9.14-13.96c3.96-3.38,8.08-4.55,11.61-3.27
		c1.81,0.66,3.41,1.99,4.72,3.86c1.24,1.78,2.22,4.04,2.85,6.68c0.23,0.97,0.38,1.97,0.51,2.99c0.56,4.67-0.01,9.73-1.67,14.3
		c-2.67,7.35-7.22,12.96-12.48,15.39c-1.86,0.86-3.75,1.29-5.62,1.29c-1.43,0-2.85-0.25-4.21-0.76
		C647.41,187.52,645.28,175.86,649.72,163.65z M668.19,176.31c2.69,0.61,5.76-2.06,7.87-6.42c0.92-4.19,0.96-8.58,0.04-12.47
		c-0.74-3.14-2.06-5.69-3.7-7.35c-3.39,0.95-7.36,5.67-8.78,11.7C661.9,169.04,663.73,175.3,668.19,176.31z M605.41,183.1
		l20.56-9.19l-0.82-1.83l-20.56,9.19L605.41,183.1z M617.83,186.1l20.56-9.19l-0.82-1.83l-20.56,9.19L617.83,186.1z M674.92,262.28
		l1.9,2.54l1.65,2.21c0.23,0.22,0.47,0.42,0.71,0.62c2.67,2.27,5.98,3.66,9.48,4c1.88,0.18,3.71,0.31,5.51,0.42
		c2.58,0.15,5.08,0.23,7.49,0.23c8.52,0,15.97-0.89,22.48-2.38c0.66-0.15,1.31-0.31,1.95-0.47c0.66-0.17,1.3-0.34,1.93-0.52
		c19.93-5.6,30.13-16.89,34.73-23.89c1.88-2.86,0.32-6.71-3.01-7.48L673,220.01c0,0.13-0.01,0.27-0.04,0.41
		c-1.15,5.37-2.73,9.87-4.26,13.42c-2.37,5.51-4.64,8.73-5.05,9.29c-0.17,0.27-0.66,1.02-1.49,2.11l9.68,12.94l1.52,2.03
		L674.92,262.28z M719.67,335.22c-5.98-8.96-4.34-20.88-2.58-29.06l0.05-0.22l0.07-0.21l2-6l0.51-1.53l1.43-0.75l10.62-5.55
		l-6.31-18.18c-6.89,1.6-14.78,2.56-23.8,2.56c-2.49,0-5.04-0.08-7.64-0.23c-1.89-0.11-3.81-0.25-5.74-0.43
		c-3.78-0.36-7.39-1.75-10.42-3.94c-0.75-0.54-1.48-1.12-2.15-1.77l-0.24-0.23l-0.03-0.05l-0.17-0.22l-1.45-1.94
		c-0.46,2.54-0.84,5.29-1.03,8.08c-0.13,1.89-0.16,3.8-0.07,5.67c0.37,7.82,2.92,15.05,10.28,17.76c0,0,0.86,3.16,2.39,8
		c0.91,2.86,2.05,6.31,3.4,10.04c0.61,1.69,1.26,3.43,1.95,5.21c0.46,1.18,0.93,2.37,1.42,3.57c0.47,1.14,0.95,2.29,1.44,3.43
		c5.5,12.71,12.67,25.17,20.39,27.75c3.84,1.28,7.42,1.82,10.74,1.82c8.9,0,15.83-3.89,20.48-7.68
		C737.85,350.3,727.43,346.86,719.67,335.22z M827.04,308.4c-0.25,0.58-0.56,1.14-0.93,1.67c0.09,0.16,0.19,0.33,0.27,0.49
		l0.06,0.17c0.37,1.11,0.45,2.22,0.29,3.25c-0.42,2.75-2.57,4.98-5.65,5.35c-0.29,0.13-0.91,0.39-1.38,0.6
		c-2.9,3.59-8.03,3.31-11.91,1.88c-0.13-0.02-0.34-0.05-0.56-0.09c-2.49,1.7-5.73,2.26-8.63,1.41l-1.65-0.51
		c-0.64-0.2-1.26-0.47-1.84-0.82c-3.43-2.05-6.8-4.17-10.08-6.41c-0.55-0.38-1.1-0.76-1.65-1.14c-1.33-0.93-2.63-1.89-3.93-2.87
		c-4.66-3.54-9.07-7.4-13.07-11.8c-2.87-3.43-5.92-7.62-5.47-12.4l0.1-1.19c0.11-1.49,0.33-2.95,0.65-4.36
		c0.2-0.9,0.47-1.77,0.75-2.64c0.27-0.81,0.58-1.59,0.92-2.36c3.29-7.43,9.79-12.95,18.52-14.18c6.19-0.73,12.4-0.41,18.6,0.23
		c4.65,0.67,9.89,1.64,13.41,5.26c1.88,2.02,2.86,4.86,2.21,7.64c-0.52,2.12-2.44,3.47-4.4,4.18c-0.67,0.24-1.35,0.41-1.97,0.51
		c-1.06,0.17-2.12,0.25-3.17,0.3c1.45,0.92,3.01,1.96,4.62,3.1c0.01,0.01,0.03,0.02,0.04,0.03c7.4,5.24,15.57,12.51,16.56,19.52
		C828,305.06,827.75,306.8,827.04,308.4z M823.78,303.81c-0.66-4.68-6.17-10.14-12.24-14.79c-1.8-1.38-3.64-2.68-5.42-3.87
		c-0.34-0.23-0.68-0.45-1.02-0.67c-0.03-0.02-0.06-0.04-0.09-0.06c-1.27-0.83-2.5-1.6-3.64-2.28c-1.39-0.84-2.64-1.55-3.68-2.11
		c-0.01,0-0.02-0.01-0.02-0.01c-1.73-0.29-3.45-0.64-5.17-1.04c-0.43-0.1-0.85-0.19-1.28-0.3c-0.01,0-0.02,0-0.03-0.01
		c0,0,0-0.02,0-0.02c0.01-0.05,0.1-0.42,0.18-0.8c0.09-0.41,0.19-0.83,0.19-0.83c1.45,0.21,3.91,0.6,6.68,0.87c0,0,0,0,0,0
		c1.39,0.14,2.86,0.25,4.31,0.29c2.17,0.07,4.31-0.02,6.11-0.37c2.31-0.45,4.07-1.34,4.64-2.93c0.54-3.16-1.78-5.82-4.89-7.09
		c-6.73-2.74-14.55-2.52-21.77-2.46c-10.78,0.03-18.28,6.1-21.01,15.22c-0.27,0.9-0.5,1.81-0.68,2.77
		c-0.19,1.05-0.32,2.13-0.39,3.24c-0.04,0.61-0.08,1.21-0.08,1.83c0.41,4.02,4.14,8.66,9.05,13.16c1.49,1.36,3.09,2.71,4.74,4.03
		c1.4,1.11,2.84,2.2,4.28,3.25c5.16,3.77,10.34,7.04,13.87,9.21c0.62,0.38,1.28,0.68,1.97,0.89l1.26,0.39
		c1.6,0.47,3.36,0.22,4.81-0.58l-1.55-1.68l-0.61-0.66l-12.78-13.84l15.61,12.33l0.84,0.67l3.19,2.52c0.46,0.14,1.57,0.49,1.57,0.49
		c1.39,0.29,4.3,0.72,5.8-1.06l-1.44-1.44l-0.71-0.71l-14.47-14.46l-3.54-3.54l4.33,3.35l16.41,12.72l0.93,0.72l1.79,1.39
		c0.21-0.07,0.38-0.12,0.46-0.12c2.1-0.28,2.84-1.44,2.3-3.48c-0.01-0.02-0.02-0.04-0.03-0.06c-0.64-1.59-1.58-3.11-2.69-4.56
		c-2.27-2.97-5.26-5.65-7.88-8.06c-0.37-0.32-0.75-0.63-1.12-0.95c-3.25-2.79-6.64-5.44-10.14-7.95c-0.88-0.63-1.76-1.27-2.65-1.88
		c0.68,0.37,1.36,0.75,2.03,1.12c2.27,1.26,4.53,2.56,6.75,3.92c2.18,1.34,4.33,2.74,6.42,4.22c0.1,0.07,0.2,0.14,0.29,0.21
		c2.16,1.54,4.27,3.16,6.29,4.9c0.15,0.13,0.3,0.25,0.45,0.38c1.12,1,2.21,2.07,3.21,3.22c0.14-0.39,0.23-0.79,0.27-1.2
		C823.87,304.77,823.85,304.3,823.78,303.81z M764.35,301.36c-3.35-3.86-6.75-8.78-6.26-14.33c0.1-1.54,0.25-3.11,0.52-4.65
		l-0.4,0.21l-21.54,11.26l-1.79,0.94l-1.79,0.94L723,301l-2,6c-1.85,8.63-2.89,18.66,2,26c8.25,12.38,19.82,14.35,26.23,14.38
		c0.04,0,0.09,0,0.13,0c1.04,0,1.93-0.05,2.65-0.12c1.26-0.11,1.98-0.26,1.98-0.26l2.36-2.89l23.47-28.68l0.36-0.43
		C774.56,311.02,769.24,306.64,764.35,301.36z M678.83,147.04c3.86,3.56,7.22,7.44,11.17,10.96c-0.49-1.76-1.15-3.44-1.85-5.12
		c-0.69-1.5-1.48-2.96-2.36-4.36c-2.57-4.08-5.95-7.66-10.04-10.25c-0.5-0.31-1.04-0.59-1.58-0.86c-5.48-2.7-12.82-3.19-17.17,1.6
		C665.3,136.6,673,141.63,678.83,147.04z M653,100c0,0,0.04,0.12,0.11,0.36C653.08,100.24,653.04,100.12,653,100z M609.06,111.19
		c0.73,0.3,1.47,0.64,2.23,1.01c-0.72-1.24-1.53-2.31-2.42-3.25c-8.66-9.05-24.73-4.2-30.39,6.8
		C589.39,110.33,597.71,106.49,609.06,111.19z M473.17,317.41c0.57,0.13,1.19,0.27,1.85,0.4c0.57,0.11,1.18,0.21,1.81,0.31
		c1.83,0.27,3.88,0.47,6.08,0.47c6.75,0,14.77-1.81,21.09-8.58c14-15,10.09-27.62,10.09-27.62l-8.54-8.3l-1.11-1.07l-1.11-1.07
		l-16.46-15.99l-0.31-0.31c-0.19,1.63-0.53,3.27-0.91,4.85c-1.18,5.44-5.88,9.13-10.22,11.83c-5.87,3.38-11.87,5.89-18.02,7.95
		l0.17,0.52l11.58,35.44C469.15,316.23,470.67,316.82,473.17,317.41z M611.16,292.77c-0.28-0.83-0.9-1.49-1.7-1.85
		c-2.96-1.35-6.23-2.1-9.63-2.1c-0.49,0-0.99,0.02-1.48,0.05c-0.11,0.01-0.23,0.02-0.34,0.03c-0.67,0.05-1.34,0.13-1.99,0.24
		c-0.66,0.11-1.32,0.25-1.96,0.42c-3.39,0.87-6.48,2.48-9.11,4.66c-4.59,3.8-7.78,9.3-8.73,15.53c-0.28,1.81-0.37,3.69-0.25,5.6
		c0.33,5.13,2.12,9.81,4.93,13.61c0.46,0.62,0.94,1.22,1.45,1.79c0.48,0.54,0.98,1.06,1.51,1.55c4.31,4.06,10,6.52,16.18,6.52
		c0.49,0,0.99-0.02,1.48-0.05c8.8-0.56,16.17-5.98,19.87-13.6c0.16-0.33,0.31-0.66,0.46-1l-5.8-17.06L611.16,292.77z M684.85,317.9
		c-1.66-4.63-3.01-8.79-3.97-11.92c-0.51-1.67-0.92-3.05-1.21-4.06c-6.49-3.22-9.44-9.39-10.49-16.26
		c-2.98,3.31-6.68,6.63-11.27,10.08c-1.94,1.46-3.96,2.67-6.04,3.68c-6.98,3.39-14.67,4.47-22.5,4.47c-1.06,0-2.12-0.02-3.18-0.06
		c-0.73-0.02-1.45-0.06-2.18-0.1c-0.74-0.04-1.48-0.09-2.22-0.14c-0.94-0.07-1.87-0.14-2.8-0.22l1.46,4.31l3.28,9.64l1.28,3.77
		l1.08,3.19l0.89,2.6l1.5,4.4c1.33,3.91,4.69,6.7,8.77,7.27c7.92,1.12,27.01,2.06,46.01,0.87c1-0.06,2-0.13,2.99-0.2
		c0.77-0.06,1.46-0.53,1.81-1.22l1.41-8.26c-0.32-0.77-0.65-1.52-0.97-2.31C687.15,324.14,685.94,320.92,684.85,317.9z
		 M664.99,343.96c-12.25,0-22.85-0.69-28.31-1.46c-5.58-0.79-10.17-4.6-12-9.95l-1.08-3.18c-4.63,7.55-12.57,12.79-21.85,13.38
		c-0.58,0.04-1.16,0.06-1.74,0.06c-6.97,0-13.39-2.66-18.33-7.08c-2.61,3.2-6.38,5.31-10.64,5.82l-21.43,3.4l-0.09,0.01l-0.09,0.01
		c-0.02,0-0.03,0-0.05,0l3.4,17.02h126.94l3.6-18.6C677.11,343.79,670.86,343.96,664.99,343.96z M580.37,227.22
		c-5.39,4.6-18,15.69-27.62,26.64c-0.34,0.39-0.69,0.78-1.02,1.17c-0.34,0.39-0.67,0.79-1,1.18c-0.49,0.58-0.96,1.16-1.43,1.73
		c-0.1,0.42-0.25,1.07-0.4,1.93c-0.1,0.58-0.21,1.26-0.3,2.01c-0.08,0.63-0.14,1.31-0.19,2.03c-0.29,4.14-0.01,9.69,2.37,14.92
		c0.32,0.7,0.67,1.39,1.07,2.08c0.2,0.35,0.41,0.69,0.63,1.03c0.16,0.25,0.34,0.48,0.51,0.73c4.56,6.43,12.35,10.42,23.2,11.84
		c0.83,0.11,1.64,0.22,2.46,0.33c0.05-0.06,0.1-0.12,0.15-0.18c1.87-2.22,4.03-4.09,6.38-5.59c2.52-1.61,5.28-2.78,8.19-3.48
		c0.65-0.16,1.3-0.3,1.96-0.41c0.66-0.11,1.32-0.19,1.99-0.25c0.26-0.02,0.51-0.05,0.77-0.07c0.58-0.04,1.16-0.06,1.74-0.06h0
		c4.77,0,9.28,1.25,13.24,3.45c0.64,0.35,1.1,0.95,1.34,1.64l0.38,1.11l0.33,0.97l1.26,3.71l1.55,4.55c0.75,0.07,1.5,0.14,2.22,0.2
		c0.82,0.07,1.61,0.12,2.4,0.17c0.79,0.05,1.56,0.09,2.32,0.12c9.02,0.39,16.1-0.37,22-2.46c3.41-1.2,6.43-2.84,9.23-4.95
		c5.44-4.09,9.55-7.93,12.66-11.8c-0.32-6.46,0.69-13.14,1.84-18.35l-11.07-14.8c-0.75,0.82-1.61,1.71-2.57,2.62
		c-7.14,6.84-20.13,15.6-39.91,15.6c-1.01,0-2.05-0.03-3.1-0.08c-2.02-0.09-4.11-0.26-6.26-0.55c-3.31-0.44-6.34-1.28-9.08-2.51
		c-0.46-0.2-0.9-0.42-1.34-0.64c-0.86-0.44-1.69-0.92-2.49-1.45c-0.58-0.38-1.15-0.79-1.71-1.21c-0.67-0.52-1.31-1.07-1.92-1.65
		c-0.16-0.15-0.31-0.29-0.46-0.44c-0.89-0.88-1.73-1.84-2.52-2.86c-0.05-0.07-0.11-0.13-0.16-0.2c-3.21-4.27-5.12-9.25-6.22-14.09
		c-0.43-1.9-0.74-3.78-0.96-5.59c-0.35-2.98-0.45-5.76-0.42-8.13c0-0.01,0-0.01,0-0.02C580.4,227.19,580.38,227.21,580.37,227.22z
		 M580.46,165.48c-2.93-5.06-3.42-12.37-1.35-20.05c3.25-12.03,13.61-21.44,21.32-19.35c1.39,0.37,2.62,1.09,3.69,2.08
		c2.44,2.27,4.01,6.03,4.53,10.58c0.2,1.71,0.23,3.55,0.12,5.45c-0.15,2.61-0.57,5.35-1.33,8.16c-1.87,6.9-5.23,12.53-9.09,15.92
		c0.62,0.54,1.2,1.13,1.72,1.79c0.72,0.9,1.3,1.92,1.82,2.92c-1.03-0.57-1.86-1.28-2.8-1.82c-0.83-0.57-1.69-1.05-2.56-1.47
		c-0.37-0.18-0.74-0.35-1.12-0.5c-0.4-0.16-0.81-0.31-1.22-0.45c-2.96-0.98-6.08-1.25-9.22-1.02c-0.45,0.03-0.9,0.08-1.35,0.13
		c-0.42,0.05-0.83,0.11-1.25,0.17c-1.46,0.23-2.93,0.55-4.37,0.96c0.95-0.96,2.04-1.73,3.2-2.37
		C580.94,166.27,580.7,165.88,580.46,165.48z M598.32,154.55c2.78,0.63,5.96-2.24,8.07-6.86c1.39-8.78-0.57-16.44-4.91-18.99
		c-3.13,1.52-6.47,5.88-7.74,11.3C592.03,147.28,593.86,153.54,598.32,154.55z M473.9,269.85c-5.57,3.22-11.4,5.67-17.39,7.7
		c-0.63,0.21-1.26,0.43-1.9,0.63c-0.63,0.21-1.27,0.41-1.91,0.6c-4.4,1.36-8.88,2.54-13.37,3.67c-0.11,0.03-0.23,0.04-0.33,0.04
		l-2.73-0.02c-2.85-0.08-5.61-1.46-7.4-3.68l-0.01,0l-0.02-0.04c-0.04-0.05-0.08-0.11-0.12-0.17c-0.38-0.05-0.65-0.09-0.78-0.11
		c-0.3,0.02-1.94,0.16-1.94,0.16c-3.41-0.09-7.37-1.57-8.79-5.06c-0.35-0.29-0.89-0.72-1.2-0.97c-2.91-1.21-4.34-3.97-3.91-6.75
		c0.16-1.02,0.56-2.04,1.24-2.98h0c0,0,0.11-0.15,0.11-0.15c0.13-0.14,0.27-0.26,0.4-0.39c-0.2-0.62-0.32-1.25-0.4-1.88
		c-0.2-1.74,0.07-3.48,0.85-5.13c3.02-6.4,12.97-10.92,21.59-13.74c0.01,0,0.03-0.01,0.04-0.01c1.61-0.53,3.17-0.99,4.63-1.4
		c-1.43-0.54-2.74-1.2-3.88-2c-1.07-0.75-1.99-1.63-2.67-2.66c-2.16-3.64,0.46-8.28,3.8-10.11c1.61-0.93,3.34-1.34,5-1.56
		c8.05-0.78,15.55,1.77,23.04,4.11c9.75,2.91,16.01,10.21,17.64,19.14c0.19,1.03,0.31,2.08,0.38,3.15c0.05,0.92,0.06,1.86,0.02,2.81
		c-0.08,1.82-0.34,3.69-0.79,5.57C482.41,263.84,477.91,267.42,473.9,269.85z M472.14,267.01c2.95-1.94,5.86-3.97,7.07-7.11
		c0.58-2.03,0.94-4.16,1.08-6.26c0.1-1.18,0.09-2.33,0.01-3.45c-0.05-0.7-0.13-1.4-0.24-2.07c-0.12-0.67-0.26-1.34-0.44-1.99
		c-1.93-6.99-7.45-12.44-14.93-14.58c-6.84-2.13-14.25-4.61-21.4-3.99c-2.5,0.29-4.87,1.23-5.97,3.53
		c-0.55,1.14-0.59,1.84-0.17,2.66c0.99,1.39,2.44,2.37,4.08,3.14c1.63,0.76,3.45,1.3,5.18,1.82c0.49,0.15,0.97,0.29,1.44,0.44
		c0.69,0.18,1.39,0.34,2.08,0.51c0,0,0,0,0,0c2.2,0.54,4.44,1.03,6.67,1.45l-0.11,1.47c-0.41-0.01-0.83-0.02-1.27-0.03
		c-1.45-0.04-3.09-0.13-4.79-0.29c-0.34-0.03-0.68-0.07-1.03-0.11c-1.06,0.22-2.3,0.5-3.67,0.83c-1.29,0.32-2.69,0.69-4.15,1.1
		c-0.04,0.01-0.07,0.02-0.11,0.03c-9.19,2.62-20.83,7.14-23.56,12.93c-0.21,0.45-0.36,0.9-0.46,1.34c-0.08,0.41-0.11,0.82-0.1,1.23
		c1.17-0.73,2.4-1.37,3.63-1.94c0.13-0.06,0.26-0.12,0.39-0.18c2.62-1.16,5.29-2.15,8-3.04c0.34-0.11,0.68-0.23,1.02-0.34
		c2.21-0.7,4.45-1.33,6.7-1.91c2.53-0.64,5.07-1.21,7.61-1.74c0.76-0.16,1.52-0.32,2.28-0.47c-1.03,0.32-2.06,0.67-3.09,1.01
		c-4.07,1.36-8.09,2.88-12,4.58c-0.46,0.2-0.93,0.39-1.4,0.6c-3.22,1.52-6.87,3.21-9.92,5.37c-1.49,1.06-2.84,2.23-3.92,3.56
		c-0.01,0.02-0.03,0.03-0.04,0.05c-1.15,1.83-0.73,3.23,1.23,4.16c0.04,0.02,0.12,0.07,0.21,0.14l2.26-0.85l1.1-0.41l16.88-6.33
		L446,259l-6.92,3.64l-15.62,8.22l-0.88,0.47l-1.93,1.02c0.39,0.89,0.94,1.56,1.77,2.02c1.44,0.78,4.72,0.84,4.72,0.84l4.31-1.66
		l1-0.38L451,266l-16.3,9.43l-0.78,0.45l-2.44,1.41c1.24,1.36,3.02,2.22,4.87,2.22c0,0,2.14,0,2.46,0
		c4.36-1.12,8.77-2.32,13.13-3.72c0.74-0.24,1.49-0.48,2.23-0.74c0.75-0.25,1.49-0.52,2.24-0.78
		C461.89,272.3,467.22,269.95,472.14,267.01z M542,269c-5.86,12.7-5.04,25.4-3.14,42.77c0.09,0.82,0.22,1.63,0.38,2.44L544,338
		c0,2.55,2.69,3.04,4.28,3.04c0.12,0,0.22,0,0.32-0.01c0.15-0.01,0.28-0.02,0.39-0.03l21.51-3.41c3.37-0.38,6.37-2.13,8.36-4.75
		c-3.95-4.66-6.49-10.65-6.91-17.25c-0.1-1.56-0.07-3.11,0.06-4.64c0.43-4.79,2-9.36,4.6-13.35c0,0,0,0,0-0.01
		c-10.97-1.3-19.18-5.05-24.48-11.14c-0.42-0.48-0.82-0.97-1.2-1.48c-0.34-0.46-0.67-0.92-0.98-1.41c-0.06-0.09-0.12-0.19-0.18-0.28
		c-4.41-6.97-4.8-14.79-4.35-20.16C544.03,265.17,542.85,267.16,542,269z M494.13,217.26c-0.26-0.83-0.12-1.71,0.4-2.42
		c0.52-0.72,1.33-1.15,2.22-1.17l76.82-1.5c-0.42-0.65-0.84-1.31-1.25-1.98c-0.4-0.65-0.8-1.31-1.19-1.98
		c-2.3-3.91-4.37-7.95-6.3-11.98c-1.95-4.74-3.32-9.63-4.32-14.6c-0.66,0.12-1.41,0.21-2.24,0.21c-1.52,0-3.29-0.28-5.18-1.11
		c-7.09-3.11-12.48-12.29-16.03-27.27c-3.05-12.88-1.77-23.34,3.81-31.09c1.69-2.36,3.65-4.26,5.68-5.81
		c0.52,1.28,1.07,2.55,1.66,3.81c-1.48,1.22-2.88,2.66-4.11,4.37c-4.85,6.77-5.91,16.12-3.14,27.8
		c4.02,16.97,9.64,22.68,13.65,24.49c2.09,0.94,3.93,0.91,5.2,0.68c-1.45-9.07-1.77-18.36-1.94-27.49
		c-0.03-4.62,0.04-9.22,0.21-13.82c0.01-0.16,0.01-0.32,0.02-0.49c0.01-0.23,0.03-0.46,0.04-0.7c-2.94-5.14-5.63-10.7-7.74-16.45
		c-0.48-1.3-0.92-2.61-1.33-3.92c-3.71-11.84-4.73-24.26-0.3-35.37c1.46-3.66,3.51-7.19,6.25-10.49c4.75-5.86,10.8-10.83,17.64-14.1
		c7.01-3.29,14.75-4.58,22.55-3.91c-7.67-1.99-16.11-1.34-23.57,1.49c-8.95,3.59-16.97,9.89-22.39,17.92C553.88,30.28,591,34,591,34
		c-9-28,18-34,18-34s-12,20,4,35c0,0,16-42,94-30c0,0-17.24,11.77-30.18,26.6C718.15,15.81,741,35,741,35c-22,3-29,11-29,11
		s17-2,40.38,25c0,0-10.38-5-25.38-2c0,0,19-3,33,44c3.98,13.36,4.4,27.06,21,29c0,0-18.98,1.96-28.88-7.35
		c-0.54,13.62,3.36,41.12,42.47,46.35c0,0-13.6,21-55.6,21c0,0,3,6,24,5c0,0-18.75,18.08-47.49,17.52l-6.42-1.3l-13.75-2.78
		l-19.02-3.84c-0.52,0.38-1.04,0.76-1.58,1.13c-0.22,0.15-0.45,0.3-0.67,0.46c-0.44,0.3-0.87,0.6-1.31,0.89
		c-0.34,0.23-0.7,0.45-1.05,0.67c-1.04,0.67-2.1,1.32-3.17,1.96c-1.43,5.77-3.34,10.37-4.96,13.61c-1.76,3.52-3.16,5.44-3.19,5.47
		l-0.12,0.18c-0.01,0.02-0.11,0.18-0.29,0.45c-0.09,0.13-0.19,0.28-0.32,0.47c-0.3,0.43-0.72,1-1.25,1.67
		c-0.38,0.48-0.82,1.01-1.32,1.58c-4.68,5.35-14.67,14.23-30.91,16.76c-2.85,0.45-5.88,0.71-9.12,0.71c-1.31,0-2.65-0.05-4.02-0.13
		l2.86-8.42c-0.81,0.06-1.67,0.1-2.57,0.1c-3.69,0-8.07-0.59-12.37-2.58l0.74,8.81c-1.07-0.4-2.12-0.85-3.09-1.39
		c-1.54-0.84-2.95-1.83-4.25-2.99c-0.87-0.77-1.67-1.63-2.43-2.55c-0.24-0.29-0.49-0.55-0.71-0.85c-0.74-0.98-1.4-2.02-1.99-3.09
		c-3.16-5.69-4.33-12.37-4.67-17.89c-0.11-1.71-0.13-3.31-0.11-4.73c0.01-0.51,0.02-1,0.03-1.46c-0.46-0.43-0.91-0.87-1.36-1.31
		c-0.15-0.15-0.31-0.3-0.46-0.45c-0.18-0.18-0.35-0.36-0.53-0.54c0,0,0,0-0.01-0.01c-0.45-0.47-0.9-0.95-1.34-1.43
		c-0.01-0.01-0.02-0.02-0.03-0.03c-0.02-0.02-0.04-0.04-0.06-0.06c0,0.04-0.01,0.08-0.01,0.12l-0.23,0.19
		c-1.02,0.84-18.82,15.55-31.41,30.12c-0.34,0.39-0.68,0.78-1.01,1.17c-0.33,0.4-0.66,0.79-0.99,1.19
		c-1.11,1.34-2.16,2.68-3.14,3.99c-9.49-3.02-17.11-6.34-23.23-9.79c-0.44-0.25-0.87-0.5-1.3-0.75c-0.44-0.26-0.87-0.51-1.29-0.77
		C500.01,236.04,496.26,224.06,494.13,217.26z M649.67,230.8c-14.1,5.37-29.01,8.17-41.66,7.39c-3.44-0.32-7.37-1-10.48-3
		c-0.57-0.38-1.15-0.77-1.73-1.16l0.54,0.49c0.75,0.67,0.87,1.78,0.33,2.59l0.21,0.06l0.11,1.43c0.89,0.6,1.89,1.08,3,1.4l0.57,6.82
		c5.98,3.57,12.61,3.57,16.75,3.06L620,242C620,242,636.17,244.54,649.67,230.8z M684.8,209.86c-0.03-0.07-0.05-0.13-0.08-0.2
		c-0.01,0.01-0.02,0.02-0.02,0.02L684.8,209.86z M706.91,142.17c0.47,0.85,0.96,1.7,1.47,2.54c0.49,0.81,0.98,1.62,1.5,2.42
		c2.52,3.93,5.35,7.67,8.38,11.19c0.57-0.27,1.15-0.51,1.74-0.73c0.62-0.23,1.25-0.43,1.89-0.59c-3.82-4.06-7.35-8.44-10.45-13.07
		c-0.2-0.3-0.41-0.6-0.61-0.9c-0.65-0.99-1.27-2-1.88-3.02C702.23,128.8,698.03,116.24,698,103c0,0,0,0,0,0
		C696.54,116.77,700.27,130.2,706.91,142.17z M577.17,208.1c1.07,1.68,2.19,3.32,3.37,4.92c1.35,1.83,2.78,3.6,4.32,5.27
		c0.42,0.46,0.85,0.91,1.29,1.36c1.61,1.65,3.32,3.2,5.16,4.63c2.54,2.07,5.67,4.15,8.42,6.02c0.79,0.53,1.64,1.08,2.56,1.39
		c3.92,1.42,8.63,1.54,12.89,1.41c16.82-0.82,33.45-6.19,48.44-13.97c0.93-0.48,1.85-0.97,2.76-1.47c0.37-0.2,0.74-0.39,1.1-0.6
		c0.1-0.05,0.19-0.11,0.28-0.16c0.89-0.49,1.77-0.99,2.65-1.51c3.12-1.82,6.17-3.74,9.18-5.77c1.5-1.01,2.99-2.05,4.47-3.11
		c0.69-0.5,1.39-1,2.08-1.51c0.52-0.38,1.04-0.76,1.55-1.15c0.09-0.07,0.18-0.14,0.27-0.21c0.89-0.67,1.77-1.35,2.65-2.04l0.77,0.77
		c-1.07,1.39-2.23,2.75-3.47,4.08c0.02,0.06,0.04,0.12,0.05,0.18c0.02,0.1,0.98,4.91,5.23,7.02c1.62,0.81,3.53,1.14,5.7,1.02
		c3.17-0.17,6.92-1.33,11.21-3.47c18.17-9.09,22.99-20.82,23.03-20.94c0.08-0.18,3.96-9.01,4.12-17.03c0.01-0.34,0.01-0.68,0-1.01
		c-0.01-0.55-0.04-1.09-0.09-1.62c-0.16-1.63-0.52-3.17-1.16-4.54c-0.93-2.01-2.38-3.46-4.39-4.4c-0.53-0.25-1.09-0.47-1.71-0.65
		c-1.5-0.44-3.04-0.59-4.57-0.5c-0.78,0.05-1.55,0.16-2.3,0.33c-0.62,0.14-1.23,0.33-1.83,0.56c-0.04,0.02-0.09,0.03-0.13,0.05
		c-0.91,0.35-1.79,0.8-2.62,1.34c-0.66,0.43-1.3,0.91-1.9,1.44c-0.54,0.48-1.05,1.01-1.53,1.57c-0.05,0.06-0.1,0.11-0.14,0.16
		l-18.76,22.93l-0.05,0.06l0.28-1.18l1.7-7.22l4.74-20.53c0.61,0.33,1.22,0.65,1.83,0.97c0.61,0.32,1.22,0.63,1.84,0.94
		c1.56,0.78,3.14,1.53,4.73,2.23l0.61-0.74c0.24-0.29,0.48-0.56,0.73-0.83c0.5-0.54,1.03-1.05,1.57-1.53
		c-2.28-0.95-4.53-1.95-6.74-3.03c-0.05-0.02-0.09-0.04-0.14-0.07c-0.57-0.28-1.13-0.6-1.69-0.89c-0.61-0.32-1.22-0.63-1.83-0.96
		C681.11,143.89,662.8,123.79,653,100c-15,24-8,60-8,60c-20.47-19.36-29.3-35.96-32.09-49.41c-1.04-8.33-0.56-16.9,1.67-24.99
		c0.02-0.09,0.04-0.18,0.07-0.26c0.16-0.56,0.34-1.11,0.52-1.67c0.23-0.74,0.48-1.48,0.75-2.22c1.31-3.63,2.99-7.14,5.09-10.45
		c-2.51,2.62-4.59,5.55-6.3,8.68c-0.58,1.07-1.12,2.16-1.62,3.28c-0.38,0.85-0.73,1.72-1.05,2.6c-13.15,0.11-41.07,5.13-49.42,44.34
		c-0.25,6.74-0.3,13.52-0.14,20.24c0.49,13.81,1.37,27.86,5.8,40.93c0.75,2.09,1.68,4.17,2.73,6.13
		C572.91,200.9,574.93,204.58,577.17,208.1z M482.91,322.58c-1.3,0-2.55-0.07-3.74-0.17c3.07,5.12,6.65,9.19,10.83,11.59
		c4.57,2.61,9.09,3.71,13.45,3.71c13.4,0,25.31-10.32,32.7-18.58l-0.98-4.96c-0.09-0.48-0.17-0.97-0.22-1.46
		c-2.04-18.54-2.84-31.8,3.43-45.38c0.81-1.75,1.88-3.6,3.14-5.51c-9.25-3.01-16.75-6.33-22.87-9.77l-10.99,18.51l9.23,8.97
		l0.73,0.71l0.3,0.97c0.19,0.61,4.43,15.02-10.98,31.53C500.91,319.18,492.6,322.58,482.91,322.58z"/>
	<g>
		<path class="st2" d="M39.94,99.69c0,0,6.77,104.16,7.06,109.16c2.06,44.43,3.53,75.91,3.53,75.91h0.88c0,0,2.94-42.66,3.53-76.21
			c0.59-9.42,9.12-108.87,9.12-108.87h26.19h13.53v1.77c-7.06,2.65-5.88,6.77-5.88,15.89V328.9c0,9.12-1.18,12.65,5.88,15.89v1.77
			H84.67H66.42v-1.77c7.06-3.53,5.88-6.47,5.88-15.89c0,0,0-117.4,0-120.34c1.77-45.02,4.41-83.56,4.41-83.56h-0.59
			c0,0-5.3,36.19-7.65,83.56c-0.29,5.3-11.48,138-11.48,138H39.35c0,0-10.89-132.41-11.18-136.82c-1.77-35.01-5-84.45-5-84.45h-0.88
			c0,0,0.59,50.9,1.77,84.45c0,3.24,0,119.17,0,119.17c0,9.12-0.88,12.65,5.88,15.89v1.77h-10H0.52v-1.77
			c6.77-3.53,5.88-6.47,5.88-15.89V117.34c0-9.42,0.88-12.36-5.88-15.89v-1.77H39.94z"/>
		<path class="st2" d="M122.33,117.93c-1.18-9.12-2.35-15.3-8.83-16.48v-1.77h37.07v1.77c-6.77,1.47-5,6.77-4.41,17.95l7.65,79.44
			h0.59l5.88-81.8c0.59-7.94,1.77-13.83-5-15.59v-1.77h30.9v1.77c-4.71,1.18-7.65,8.83-8.24,16.77L164.4,249.75v79.15
			c0,9.12-0.88,12.65,6.18,15.89v1.77h-19.12h-18.24v-1.77c7.06-3.53,5.88-6.47,5.88-15.89v-79.74L122.33,117.93z"/>
		<path class="st2" d="M219.42,221.21l-6.18-7.65c-4.12-5.88-16.48-19.42-17.95-38.25v-44.14c-1.18-33.84,29.72-33.54,31.48-33.54
			c2.94,0,31.19-0.88,31.19,34.13c0,0,0,24.72,0,30.31v9.12l-27.07,10.59c3.24-10,2.35-35.31,2.35-56.79
			c0-4.71,0.88-12.36-6.47-12.36c-6.47,0-7.06,4.41-7.06,12.06v44.72c2.35,15.89,5.59,16.48,11.77,24.42l5,6.47
			c27.36,36.49,26.48,42.08,26.48,71.79v43.84c0,33.54-31.19,33.25-32.66,33.25s-32.37,0.59-32.37-32.96v-60.32l27.95-13.54
			c-3.24,10.89-2.65,12.95-2.65,29.72v51.2c0,5.88,0.59,11.18,7.06,11.18c7.06,0,6.77-7.06,6.77-11.48v-36.78
			C237.08,253.28,239.14,246.51,219.42,221.21z"/>
		<path class="st2" d="M332.11,344.79v1.77h-37.37v-1.77c7.06-3.53,5.88-6.47,5.88-15.89V116.46c-6.18,4.71-13.53,20.6-18.83,73.26
			h-4.41V99.69h71.79v90.33h-4.41c-5-55.61-11.18-67.97-18.54-73.56V328.9C326.23,338.02,325.05,341.55,332.11,344.79z"/>
		<path class="st2" d="M399.79,344.79v1.77h-37.37v-1.77c7.06-3.53,6.18-6.47,6.18-15.89V117.34c0-9.42,0.88-12.36-6.18-15.89v-1.77
			h37.37v1.77c-6.77,3.24-5.88,6.77-5.88,15.89V328.9C393.9,338.02,393.02,341.55,399.79,344.79z"/>
		<g>
			<path class="st2" d="M433.03,239.4c-0.59-0.57-1.1-1.19-1.52-1.85c-0.06-0.09-0.1-0.19-0.16-0.28c-0.04-0.05-0.08-0.1-0.11-0.16
				c-0.09-0.16-0.16-0.32-0.24-0.48c-0.01-0.02-0.02-0.04-0.03-0.06c-0.32-0.63-0.54-1.29-0.69-1.95c-0.01-0.03-0.01-0.06-0.02-0.09
				c-0.05-0.25-0.09-0.5-0.12-0.75c-0.02-0.19-0.04-0.38-0.05-0.57c0-0.08-0.01-0.15-0.01-0.23c-0.05-1.23,0.14-2.49,0.61-3.73
				c1.74-4.66,5.21-7.05,9.42-8.06V124.7c0-5.59-1.18-12.06,5.88-12.06c7.36,0,6.77,8.83,6.77,12.36c0,4.12,0,19.13,0,29.72
				c0,19.71,0.29,24.13-3.83,29.72l26.19-11.48c3.53-4.41,2.94-25.3,2.94-40.6c-0.29-35.31-28.83-34.72-31.48-34.72
				c-0.88,0-32.07-0.29-32.07,33.54v118.75C418.89,245.26,426.18,241.81,433.03,239.4z"/>
			<path class="st2" d="M475.45,321.95c-4.52-0.75-7.57-1.92-7.76-1.99l-1.76-0.69l-0.59-1.8l-11.58-35.41
				c-0.05,0.02-0.09,0.03-0.14,0.04v39.44c0,6.47-0.29,12.65-7.36,12.65c-6.18,0-6.18-6.77-6.18-12.36v-35.96
				c-0.36,0.08-0.73,0.12-1.1,0.12h-2.48c-3.63,0-7.04-1.46-9.52-4H426c-0.17,0-0.35-0.01-0.52-0.03
				c-2.28-0.24-8.09-0.84-10.87-6.44l-0.11-0.09v40.51c0,33.54,30.6,33.25,31.48,33.25c1.29,0,26.19-0.01,32.23-22.75
				C477.26,325.06,476.34,323.56,475.45,321.95z"/>
		</g>
	</g>
	<g>
		<path class="st2" d="M882.58,101.45v-1.77h36.78v1.77c-6.18,3.53-5.3,6.47-5.3,15.89v197.14c0,6.47-0.29,15.59,6.77,15.59
			c6.77,0,6.18-8.83,6.18-15.3V117.34c0-9.42,1.18-12.65-5.3-15.89v-1.77h29.13v1.77c-7.06,3.53-6.18,6.47-6.18,15.89v194.49
			c0,14.12,0.29,37.37-26.19,37.37c-21.77,0-29.72-13.54-29.72-37.96v-193.9C888.76,107.93,889.64,104.99,882.58,101.45z"/>
		<path class="st2" d="M960.55,344.79c7.06-3.53,6.18-6.47,6.18-15.89V117.34c0-9.42,0.88-12.36-6.18-15.89v-1.77h63.55l5.59,80.33
			h-5c-5-37.66-5.59-65.32-32.66-65.32v87.68c13.54-5.3,16.48-27.07,16.77-41.78h5v103.86h-5.88c-0.29-14.12-2.35-38.25-15.89-45.02
			v110.34c25.6,0,29.72-36.49,33.25-72.97h5l-1.77,89.74h-67.97V344.79z"/>
		<path class="st2" d="M1071.18,221.21l-6.18-7.65c-4.12-5.88-16.48-19.42-17.95-38.25v-44.14c-1.18-33.84,29.72-33.54,31.48-33.54
			c2.94,0,31.19-0.88,31.19,34.13c0,0,0,24.72,0,30.31v9.12l-27.07,10.59c3.24-10,2.35-35.31,2.35-56.79
			c0-4.71,0.88-12.36-6.47-12.36c-6.47,0-7.06,4.41-7.06,12.06v44.72c2.35,15.89,5.59,16.48,11.77,24.42l5,6.47
			c27.36,36.49,26.48,42.08,26.48,71.79v43.84c0,33.54-31.19,33.25-32.66,33.25c-1.47,0-32.37,0.59-32.37-32.96v-60.32l27.95-13.54
			c-3.24,10.89-2.65,12.95-2.65,29.72v51.2c0,5.88,0.59,11.18,7.06,11.18c7.06,0,6.77-7.06,6.77-11.48v-36.78
			C1088.84,253.28,1090.89,246.51,1071.18,221.21z"/>
		<path class="st2" d="M1182.99,344.79v1.77h-37.37v-1.77c7.06-3.53,5.88-6.47,5.88-15.89V116.46c-6.18,4.71-13.53,20.6-18.83,73.26
			h-4.41V99.69h71.79v90.33h-4.41c-5-55.61-11.18-67.97-18.54-73.56V328.9C1177.11,338.02,1175.93,341.55,1182.99,344.79z"/>
		<path class="st2" d="M861.69,331.55c5.59-4.41,4.41-12.65,5-17.07V131.47c0-33.84-29.42-33.84-30.89-33.84
			c0,0-31.48-0.29-31.48,33.54v128.65c7.96,1.58,15.04,5.26,15.52,13.65c0.08,1.32-0.12,2.58-0.53,3.74
			c-0.03,0.07-0.05,0.15-0.08,0.22c-0.07,0.18-0.14,0.35-0.22,0.53c-0.1,0.23-0.21,0.46-0.33,0.68c-0.01,0.03-0.03,0.05-0.05,0.08
			c-0.33,0.59-0.74,1.15-1.23,1.66c-0.02,0.02-0.04,0.04-0.06,0.06c-0.12,0.13-0.24,0.26-0.37,0.38c-0.05,0.04-0.1,0.08-0.15,0.12
			c-0.08,0.07-0.15,0.15-0.24,0.22c-0.47,0.39-0.98,0.74-1.53,1.05c5.27,3.93,10.61,8.79,13.68,13.96V124.7
			c0-7.06,0-12.06,7.06-12.06c7.36,0,6.77,7.65,6.77,12.36v197.14c0,5.3,0.29,11.77-6.77,11.77c-6.77,0-7.06-5.3-7.06-11.47v-4.96
			c-0.14,0.25-0.28,0.5-0.44,0.75c-1.41,2.13-3.66,3.54-6.37,4.04l-0.45,0.19c-4.32,4.52-10.04,3.38-12.29,2.93
			c-0.17-0.03-0.34-0.08-0.5-0.13l-0.95-0.29c-0.8,0.43-1.65,0.76-2.51,1.02c4.21,21.92,22.04,23.45,30.57,22.94
			c12.36-0.88,23.24-2.65,31.78,8.24l10-20.6C871.69,333.02,870.51,331.84,861.69,331.55z"/>
	</g>
	<linearGradient id="SVGID_1_" gradientUnits="userSpaceOnUse" x1="619.9337" y1="362" x2="619.9337" y2="0">
		<stop  offset="0" style="stop-color:#B4CBE3"/>
		<stop  offset="0.0222" style="stop-color:#ACC2DD"/>
		<stop  offset="0.1291" style="stop-color:#8A9BC4"/>
		<stop  offset="0.2399" style="stop-color:#6E7BB0"/>
		<stop  offset="0.354" style="stop-color:#5962A0"/>
		<stop  offset="0.4726" style="stop-color:#495095"/>
		<stop  offset="0.5988" style="stop-color:#40458E"/>
		<stop  offset="0.7452" style="stop-color:#3D428C"/>
	</linearGradient>
	<path class="st0" d="M639.02,208.79c-2.81-2.87-6.64-4.17-10.5-3.77c-4.94,0.32-9.28,3.32-13.73,5.19
		c-7.67,3.13-16.52-0.43-19.6-7.94c5.03,5.04,11.78,7.11,18.17,4.26c2.71-1.21,5.64-2.95,8.5-3.81
		C628.02,200.65,636.45,202.16,639.02,208.79z M649.72,163.65c2.09-5.75,5.34-10.71,9.14-13.96c3.96-3.38,8.08-4.55,11.61-3.27
		c1.81,0.66,3.41,1.99,4.72,3.86c1.24,1.78,2.22,4.04,2.85,6.68c0.23,0.97,0.38,1.97,0.51,2.99c0.56,4.67-0.01,9.73-1.67,14.3
		c-2.67,7.35-7.22,12.96-12.48,15.39c-1.86,0.86-3.75,1.29-5.62,1.29c-1.43,0-2.85-0.25-4.21-0.76
		C647.41,187.52,645.28,175.86,649.72,163.65z M668.19,176.31c2.69,0.61,5.76-2.06,7.87-6.42c0.92-4.19,0.96-8.58,0.04-12.47
		c-0.74-3.14-2.06-5.69-3.7-7.35c-3.39,0.95-7.36,5.67-8.78,11.7C661.9,169.04,663.73,175.3,668.19,176.31z M605.41,183.1
		l20.56-9.19l-0.82-1.83l-20.56,9.19L605.41,183.1z M617.83,186.1l20.56-9.19l-0.82-1.83l-20.56,9.19L617.83,186.1z M674.92,262.28
		l1.9,2.54l1.65,2.21c0.23,0.22,0.47,0.42,0.71,0.62c2.67,2.27,5.98,3.66,9.48,4c1.88,0.18,3.71,0.31,5.51,0.42
		c2.58,0.15,5.08,0.23,7.49,0.23c8.52,0,15.97-0.89,22.48-2.38c0.66-0.15,1.31-0.31,1.95-0.47c0.66-0.17,1.3-0.34,1.93-0.52
		c19.93-5.6,30.13-16.89,34.73-23.89c1.88-2.86,0.32-6.71-3.01-7.48L673,220.01c0,0.13-0.01,0.27-0.04,0.41
		c-1.15,5.37-2.73,9.87-4.26,13.42c-2.37,5.51-4.64,8.73-5.05,9.29c-0.17,0.27-0.66,1.02-1.49,2.11l9.68,12.94l1.52,2.03
		L674.92,262.28z M719.67,335.22c-5.98-8.96-4.34-20.88-2.58-29.06l0.05-0.22l0.07-0.21l2-6l0.51-1.53l1.43-0.75l10.62-5.55
		l-6.31-18.18c-6.89,1.6-14.78,2.56-23.8,2.56c-2.49,0-5.04-0.08-7.64-0.23c-1.89-0.11-3.81-0.25-5.74-0.43
		c-3.78-0.36-7.39-1.75-10.42-3.94c-0.75-0.54-1.48-1.12-2.15-1.77l-0.24-0.23l-0.03-0.05l-0.17-0.22l-1.45-1.94
		c-0.46,2.54-0.84,5.29-1.03,8.08c-0.13,1.89-0.16,3.8-0.07,5.67c0.37,7.82,2.92,15.05,10.28,17.76c0,0,0.86,3.16,2.39,8
		c0.91,2.86,2.05,6.31,3.4,10.04c0.61,1.69,1.26,3.43,1.95,5.21c0.46,1.18,0.93,2.37,1.42,3.57c0.47,1.14,0.95,2.29,1.44,3.43
		c5.5,12.71,12.67,25.17,20.39,27.75c3.84,1.28,7.42,1.82,10.74,1.82c8.9,0,15.83-3.89,20.48-7.68
		C737.85,350.3,727.43,346.86,719.67,335.22z M827.04,308.4c-0.25,0.58-0.56,1.14-0.93,1.67c0.09,0.16,0.19,0.33,0.27,0.49
		l0.06,0.17c0.37,1.11,0.45,2.22,0.29,3.25c-0.42,2.75-2.57,4.98-5.65,5.35c-0.29,0.13-0.91,0.39-1.38,0.6
		c-2.9,3.59-8.03,3.31-11.91,1.88c-0.13-0.02-0.34-0.05-0.56-0.09c-2.49,1.7-5.73,2.26-8.63,1.41l-1.65-0.51
		c-0.64-0.2-1.26-0.47-1.84-0.82c-3.43-2.05-6.8-4.17-10.08-6.41c-0.55-0.38-1.1-0.76-1.65-1.14c-1.33-0.93-2.63-1.89-3.93-2.87
		c-4.66-3.54-9.07-7.4-13.07-11.8c-2.87-3.43-5.92-7.62-5.47-12.4l0.1-1.19c0.11-1.49,0.33-2.95,0.65-4.36
		c0.2-0.9,0.47-1.77,0.75-2.64c0.27-0.81,0.58-1.59,0.92-2.36c3.29-7.43,9.79-12.95,18.52-14.18c6.19-0.73,12.4-0.41,18.6,0.23
		c4.65,0.67,9.89,1.64,13.41,5.26c1.88,2.02,2.86,4.86,2.21,7.64c-0.52,2.12-2.44,3.47-4.4,4.18c-0.67,0.24-1.35,0.41-1.97,0.51
		c-1.06,0.17-2.12,0.25-3.17,0.3c1.45,0.92,3.01,1.96,4.62,3.1c0.01,0.01,0.03,0.02,0.04,0.03c7.4,5.24,15.57,12.51,16.56,19.52
		C828,305.06,827.75,306.8,827.04,308.4z M823.78,303.81c-0.66-4.68-6.17-10.14-12.24-14.79c-1.8-1.38-3.64-2.68-5.42-3.87
		c-0.34-0.23-0.68-0.45-1.02-0.67c-0.03-0.02-0.06-0.04-0.09-0.06c-1.27-0.83-2.5-1.6-3.64-2.28c-1.39-0.84-2.64-1.55-3.68-2.11
		c-0.01,0-0.02-0.01-0.02-0.01c-1.73-0.29-3.45-0.64-5.17-1.04c-0.43-0.1-0.85-0.19-1.28-0.3c-0.01,0-0.02,0-0.03-0.01
		c0,0,0-0.02,0-0.02c0.01-0.05,0.1-0.42,0.18-0.8c0.09-0.41,0.19-0.83,0.19-0.83c1.45,0.21,3.91,0.6,6.68,0.87c0,0,0,0,0,0
		c1.39,0.14,2.86,0.25,4.31,0.29c2.17,0.07,4.31-0.02,6.11-0.37c2.31-0.45,4.07-1.34,4.64-2.93c0.54-3.16-1.78-5.82-4.89-7.09
		c-6.73-2.74-14.55-2.52-21.77-2.46c-10.78,0.03-18.28,6.1-21.01,15.22c-0.27,0.9-0.5,1.81-0.68,2.77
		c-0.19,1.05-0.32,2.13-0.39,3.24c-0.04,0.61-0.08,1.21-0.08,1.83c0.41,4.02,4.14,8.66,9.05,13.16c1.49,1.36,3.09,2.71,4.74,4.03
		c1.4,1.11,2.84,2.2,4.28,3.25c5.16,3.77,10.34,7.04,13.87,9.21c0.62,0.38,1.28,0.68,1.97,0.89l1.26,0.39
		c1.6,0.47,3.36,0.22,4.81-0.58l-1.55-1.68l-0.61-0.66l-12.78-13.84l15.61,12.33l0.84,0.67l3.19,2.52c0.46,0.14,1.57,0.49,1.57,0.49
		c1.39,0.29,4.3,0.72,5.8-1.06l-1.44-1.44l-0.71-0.71l-14.47-14.46l-3.54-3.54l4.33,3.35l16.41,12.72l0.93,0.72l1.79,1.39
		c0.21-0.07,0.38-0.12,0.46-0.12c2.1-0.28,2.84-1.44,2.3-3.48c-0.01-0.02-0.02-0.04-0.03-0.06c-0.64-1.59-1.58-3.11-2.69-4.56
		c-2.27-2.97-5.26-5.65-7.88-8.06c-0.37-0.32-0.75-0.63-1.12-0.95c-3.25-2.79-6.64-5.44-10.14-7.95c-0.88-0.63-1.76-1.27-2.65-1.88
		c0.68,0.37,1.36,0.75,2.03,1.12c2.27,1.26,4.53,2.56,6.75,3.92c2.18,1.34,4.33,2.74,6.42,4.22c0.1,0.07,0.2,0.14,0.29,0.21
		c2.16,1.54,4.27,3.16,6.29,4.9c0.15,0.13,0.3,0.25,0.45,0.38c1.12,1,2.21,2.07,3.21,3.22c0.14-0.39,0.23-0.79,0.27-1.2
		C823.87,304.77,823.85,304.3,823.78,303.81z M764.35,301.36c-3.35-3.86-6.75-8.78-6.26-14.33c0.1-1.54,0.25-3.11,0.52-4.65
		l-0.4,0.21l-21.54,11.26l-1.79,0.94l-1.79,0.94L723,301l-2,6c-1.85,8.63-2.89,18.66,2,26c8.25,12.38,19.82,14.35,26.23,14.38
		c0.04,0,0.09,0,0.13,0c1.04,0,1.93-0.05,2.65-0.12c1.26-0.11,1.98-0.26,1.98-0.26l2.36-2.89l23.47-28.68l0.36-0.43
		C774.56,311.02,769.24,306.64,764.35,301.36z M678.83,147.04c3.86,3.56,7.22,7.44,11.17,10.96c-0.49-1.76-1.15-3.44-1.85-5.12
		c-0.69-1.5-1.48-2.96-2.36-4.36c-2.57-4.08-5.95-7.66-10.04-10.25c-0.5-0.31-1.04-0.59-1.58-0.86c-5.48-2.7-12.82-3.19-17.17,1.6
		C665.3,136.6,673,141.63,678.83,147.04z M653,100c0,0,0.04,0.12,0.11,0.36C653.08,100.24,653.04,100.12,653,100z M609.06,111.19
		c0.73,0.3,1.47,0.64,2.23,1.01c-0.72-1.24-1.53-2.31-2.42-3.25c-8.66-9.05-24.73-4.2-30.39,6.8
		C589.39,110.33,597.71,106.49,609.06,111.19z M473.17,317.41c0.57,0.13,1.19,0.27,1.85,0.4c0.57,0.11,1.18,0.21,1.81,0.31
		c1.83,0.27,3.88,0.47,6.08,0.47c6.75,0,14.77-1.81,21.09-8.58c14-15,10.09-27.62,10.09-27.62l-8.54-8.3l-1.11-1.07l-1.11-1.07
		l-16.46-15.99l-0.31-0.31c-0.19,1.63-0.53,3.27-0.91,4.85c-1.18,5.44-5.88,9.13-10.22,11.83c-5.87,3.38-11.87,5.89-18.02,7.95
		l0.17,0.52l11.58,35.44C469.15,316.23,470.67,316.82,473.17,317.41z M611.16,292.77c-0.28-0.83-0.9-1.49-1.7-1.85
		c-2.96-1.35-6.23-2.1-9.63-2.1c-0.49,0-0.99,0.02-1.48,0.05c-0.11,0.01-0.23,0.02-0.34,0.03c-0.67,0.05-1.34,0.13-1.99,0.24
		c-0.66,0.11-1.32,0.25-1.96,0.42c-3.39,0.87-6.48,2.48-9.11,4.66c-4.59,3.8-7.78,9.3-8.73,15.53c-0.28,1.81-0.37,3.69-0.25,5.6
		c0.33,5.13,2.12,9.81,4.93,13.61c0.46,0.62,0.94,1.22,1.45,1.79c0.48,0.54,0.98,1.06,1.51,1.55c4.31,4.06,10,6.52,16.18,6.52
		c0.49,0,0.99-0.02,1.48-0.05c8.8-0.56,16.17-5.98,19.87-13.6c0.16-0.33,0.31-0.66,0.46-1l-5.8-17.06L611.16,292.77z M684.85,317.9
		c-1.66-4.63-3.01-8.79-3.97-11.92c-0.51-1.67-0.92-3.05-1.21-4.06c-6.49-3.22-9.44-9.39-10.49-16.26
		c-2.98,3.31-6.68,6.63-11.27,10.08c-1.94,1.46-3.96,2.67-6.04,3.68c-6.98,3.39-14.67,4.47-22.5,4.47c-1.06,0-2.12-0.02-3.18-0.06
		c-0.73-0.02-1.45-0.06-2.18-0.1c-0.74-0.04-1.48-0.09-2.22-0.14c-0.94-0.07-1.87-0.14-2.8-0.22l1.46,4.31l3.28,9.64l1.28,3.77
		l1.08,3.19l0.89,2.6l1.5,4.4c1.33,3.91,4.69,6.7,8.77,7.27c7.92,1.12,27.01,2.06,46.01,0.87c1-0.06,2-0.13,2.99-0.2
		c0.77-0.06,1.46-0.53,1.81-1.22l1.41-8.26c-0.32-0.77-0.65-1.52-0.97-2.31C687.15,324.14,685.94,320.92,684.85,317.9z
		 M664.99,343.96c-12.25,0-22.85-0.69-28.31-1.46c-5.58-0.79-10.17-4.6-12-9.95l-1.08-3.18c-4.63,7.55-12.57,12.79-21.85,13.38
		c-0.58,0.04-1.16,0.06-1.74,0.06c-6.97,0-13.39-2.66-18.33-7.08c-2.61,3.2-6.38,5.31-10.64,5.82l-21.43,3.4l-0.09,0.01l-0.09,0.01
		c-0.02,0-0.03,0-0.05,0l3.4,17.02h126.94l3.6-18.6C677.11,343.79,670.86,343.96,664.99,343.96z M580.37,227.22
		c-5.39,4.6-18,15.69-27.62,26.64c-0.34,0.39-0.69,0.78-1.02,1.17c-0.34,0.39-0.67,0.79-1,1.18c-0.49,0.58-0.96,1.16-1.43,1.73
		c-0.1,0.42-0.25,1.07-0.4,1.93c-0.1,0.58-0.21,1.26-0.3,2.01c-0.08,0.63-0.14,1.31-0.19,2.03c-0.29,4.14-0.01,9.69,2.37,14.92
		c0.32,0.7,0.67,1.39,1.07,2.08c0.2,0.35,0.41,0.69,0.63,1.03c0.16,0.25,0.34,0.48,0.51,0.73c4.56,6.43,12.35,10.42,23.2,11.84
		c0.83,0.11,1.64,0.22,2.46,0.33c0.05-0.06,0.1-0.12,0.15-0.18c1.87-2.22,4.03-4.09,6.38-5.59c2.52-1.61,5.28-2.78,8.19-3.48
		c0.65-0.16,1.3-0.3,1.96-0.41c0.66-0.11,1.32-0.19,1.99-0.25c0.26-0.02,0.51-0.05,0.77-0.07c0.58-0.04,1.16-0.06,1.74-0.06h0
		c4.77,0,9.28,1.25,13.24,3.45c0.64,0.35,1.1,0.95,1.34,1.64l0.38,1.11l0.33,0.97l1.26,3.71l1.55,4.55c0.75,0.07,1.5,0.14,2.22,0.2
		c0.82,0.07,1.61,0.12,2.4,0.17c0.79,0.05,1.56,0.09,2.32,0.12c9.02,0.39,16.1-0.37,22-2.46c3.41-1.2,6.43-2.84,9.23-4.95
		c5.44-4.09,9.55-7.93,12.66-11.8c-0.32-6.46,0.69-13.14,1.84-18.35l-11.07-14.8c-0.75,0.82-1.61,1.71-2.57,2.62
		c-7.14,6.84-20.13,15.6-39.91,15.6c-1.01,0-2.05-0.03-3.1-0.08c-2.02-0.09-4.11-0.26-6.26-0.55c-3.31-0.44-6.34-1.28-9.08-2.51
		c-0.46-0.2-0.9-0.42-1.34-0.64c-0.86-0.44-1.69-0.92-2.49-1.45c-0.58-0.38-1.15-0.79-1.71-1.21c-0.67-0.52-1.31-1.07-1.92-1.65
		c-0.16-0.15-0.31-0.29-0.46-0.44c-0.89-0.88-1.73-1.84-2.52-2.86c-0.05-0.07-0.11-0.13-0.16-0.2c-3.21-4.27-5.12-9.25-6.22-14.09
		c-0.43-1.9-0.74-3.78-0.96-5.59c-0.35-2.98-0.45-5.76-0.42-8.13c0-0.01,0-0.01,0-0.02C580.4,227.19,580.38,227.21,580.37,227.22z
		 M580.46,165.48c-2.93-5.06-3.42-12.37-1.35-20.05c3.25-12.03,13.61-21.44,21.32-19.35c1.39,0.37,2.62,1.09,3.69,2.08
		c2.44,2.27,4.01,6.03,4.53,10.58c0.2,1.71,0.23,3.55,0.12,5.45c-0.15,2.61-0.57,5.35-1.33,8.16c-1.87,6.9-5.23,12.53-9.09,15.92
		c0.62,0.54,1.2,1.13,1.72,1.79c0.72,0.9,1.3,1.92,1.82,2.92c-1.03-0.57-1.86-1.28-2.8-1.82c-0.83-0.57-1.69-1.05-2.56-1.47
		c-0.37-0.18-0.74-0.35-1.12-0.5c-0.4-0.16-0.81-0.31-1.22-0.45c-2.96-0.98-6.08-1.25-9.22-1.02c-0.45,0.03-0.9,0.08-1.35,0.13
		c-0.42,0.05-0.83,0.11-1.25,0.17c-1.46,0.23-2.93,0.55-4.37,0.96c0.95-0.96,2.04-1.73,3.2-2.37
		C580.94,166.27,580.7,165.88,580.46,165.48z M598.32,154.55c2.78,0.63,5.96-2.24,8.07-6.86c1.39-8.78-0.57-16.44-4.91-18.99
		c-3.13,1.52-6.47,5.88-7.74,11.3C592.03,147.28,593.86,153.54,598.32,154.55z M473.9,269.85c-5.57,3.22-11.4,5.67-17.39,7.7
		c-0.63,0.21-1.26,0.43-1.9,0.63c-0.63,0.21-1.27,0.41-1.91,0.6c-4.4,1.36-8.88,2.54-13.37,3.67c-0.11,0.03-0.23,0.04-0.33,0.04
		l-2.73-0.02c-2.85-0.08-5.61-1.46-7.4-3.68l-0.01,0l-0.02-0.04c-0.04-0.05-0.08-0.11-0.12-0.17c-0.38-0.05-0.65-0.09-0.78-0.11
		c-0.3,0.02-1.94,0.16-1.94,0.16c-3.41-0.09-7.37-1.57-8.79-5.06c-0.35-0.29-0.89-0.72-1.2-0.97c-2.91-1.21-4.34-3.97-3.91-6.75
		c0.16-1.02,0.56-2.04,1.24-2.98h0c0,0,0.11-0.15,0.11-0.15c0.13-0.14,0.27-0.26,0.4-0.39c-0.2-0.62-0.32-1.25-0.4-1.88
		c-0.2-1.74,0.07-3.48,0.85-5.13c3.02-6.4,12.97-10.92,21.59-13.74c0.01,0,0.03-0.01,0.04-0.01c1.61-0.53,3.17-0.99,4.63-1.4
		c-1.43-0.54-2.74-1.2-3.88-2c-1.07-0.75-1.99-1.63-2.67-2.66c-2.16-3.64,0.46-8.28,3.8-10.11c1.61-0.93,3.34-1.34,5-1.56
		c8.05-0.78,15.55,1.77,23.04,4.11c9.75,2.91,16.01,10.21,17.64,19.14c0.19,1.03,0.31,2.08,0.38,3.15c0.05,0.92,0.06,1.86,0.02,2.81
		c-0.08,1.82-0.34,3.69-0.79,5.57C482.41,263.84,477.91,267.42,473.9,269.85z M472.14,267.01c2.95-1.94,5.86-3.97,7.07-7.11
		c0.58-2.03,0.94-4.16,1.08-6.26c0.1-1.18,0.09-2.33,0.01-3.45c-0.05-0.7-0.13-1.4-0.24-2.07c-0.12-0.67-0.26-1.34-0.44-1.99
		c-1.93-6.99-7.45-12.44-14.93-14.58c-6.84-2.13-14.25-4.61-21.4-3.99c-2.5,0.29-4.87,1.23-5.97,3.53
		c-0.55,1.14-0.59,1.84-0.17,2.66c0.99,1.39,2.44,2.37,4.08,3.14c1.63,0.76,3.45,1.3,5.18,1.82c0.49,0.15,0.97,0.29,1.44,0.44
		c0.69,0.18,1.39,0.34,2.08,0.51c0,0,0,0,0,0c2.2,0.54,4.44,1.03,6.67,1.45l-0.11,1.47c-0.41-0.01-0.83-0.02-1.27-0.03
		c-1.45-0.04-3.09-0.13-4.79-0.29c-0.34-0.03-0.68-0.07-1.03-0.11c-1.06,0.22-2.3,0.5-3.67,0.83c-1.29,0.32-2.69,0.69-4.15,1.1
		c-0.04,0.01-0.07,0.02-0.11,0.03c-9.19,2.62-20.83,7.14-23.56,12.93c-0.21,0.45-0.36,0.9-0.46,1.34c-0.08,0.41-0.11,0.82-0.1,1.23
		c1.17-0.73,2.4-1.37,3.63-1.94c0.13-0.06,0.26-0.12,0.39-0.18c2.62-1.16,5.29-2.15,8-3.04c0.34-0.11,0.68-0.23,1.02-0.34
		c2.21-0.7,4.45-1.33,6.7-1.91c2.53-0.64,5.07-1.21,7.61-1.74c0.76-0.16,1.52-0.32,2.28-0.47c-1.03,0.32-2.06,0.67-3.09,1.01
		c-4.07,1.36-8.09,2.88-12,4.58c-0.46,0.2-0.93,0.39-1.4,0.6c-3.22,1.52-6.87,3.21-9.92,5.37c-1.49,1.06-2.84,2.23-3.92,3.56
		c-0.01,0.02-0.03,0.03-0.04,0.05c-1.15,1.83-0.73,3.23,1.23,4.16c0.04,0.02,0.12,0.07,0.21,0.14l2.26-0.85l1.1-0.41l16.88-6.33
		L446,259l-6.92,3.64l-15.62,8.22l-0.88,0.47l-1.93,1.02c0.39,0.89,0.94,1.56,1.77,2.02c1.44,0.78,4.72,0.84,4.72,0.84l4.31-1.66
		l1-0.38L451,266l-16.3,9.43l-0.78,0.45l-2.44,1.41c1.24,1.36,3.02,2.22,4.87,2.22c0,0,2.14,0,2.46,0
		c4.36-1.12,8.77-2.32,13.13-3.72c0.74-0.24,1.49-0.48,2.23-0.74c0.75-0.25,1.49-0.52,2.24-0.78
		C461.89,272.3,467.22,269.95,472.14,267.01z M542,269c-5.86,12.7-5.04,25.4-3.14,42.77c0.09,0.82,0.22,1.63,0.38,2.44L544,338
		c0,2.55,2.69,3.04,4.28,3.04c0.12,0,0.22,0,0.32-0.01c0.15-0.01,0.28-0.02,0.39-0.03l21.51-3.41c3.37-0.38,6.37-2.13,8.36-4.75
		c-3.95-4.66-6.49-10.65-6.91-17.25c-0.1-1.56-0.07-3.11,0.06-4.64c0.43-4.79,2-9.36,4.6-13.35c0,0,0,0,0-0.01
		c-10.97-1.3-19.18-5.05-24.48-11.14c-0.42-0.48-0.82-0.97-1.2-1.48c-0.34-0.46-0.67-0.92-0.98-1.41c-0.06-0.09-0.12-0.19-0.18-0.28
		c-4.41-6.97-4.8-14.79-4.35-20.16C544.03,265.17,542.85,267.16,542,269z M494.13,217.26c-0.26-0.83-0.12-1.71,0.4-2.42
		c0.52-0.72,1.33-1.15,2.22-1.17l76.82-1.5c-0.42-0.65-0.84-1.31-1.25-1.98c-0.4-0.65-0.8-1.31-1.19-1.98
		c-2.3-3.91-4.37-7.95-6.3-11.98c-1.95-4.74-3.32-9.63-4.32-14.6c-0.66,0.12-1.41,0.21-2.24,0.21c-1.52,0-3.29-0.28-5.18-1.11
		c-7.09-3.11-12.48-12.29-16.03-27.27c-3.05-12.88-1.77-23.34,3.81-31.09c1.69-2.36,3.65-4.26,5.68-5.81
		c0.52,1.28,1.07,2.55,1.66,3.81c-1.48,1.22-2.88,2.66-4.11,4.37c-4.85,6.77-5.91,16.12-3.14,27.8
		c4.02,16.97,9.64,22.68,13.65,24.49c2.09,0.94,3.93,0.91,5.2,0.68c-1.45-9.07-1.77-18.36-1.94-27.49
		c-0.03-4.62,0.04-9.22,0.21-13.82c0.01-0.16,0.01-0.32,0.02-0.49c0.01-0.23,0.03-0.46,0.04-0.7c-2.94-5.14-5.63-10.7-7.74-16.45
		c-0.48-1.3-0.92-2.61-1.33-3.92c-3.71-11.84-4.73-24.26-0.3-35.37c1.46-3.66,3.51-7.19,6.25-10.49c4.75-5.86,10.8-10.83,17.64-14.1
		c7.01-3.29,14.75-4.58,22.55-3.91c-7.67-1.99-16.11-1.34-23.57,1.49c-8.95,3.59-16.97,9.89-22.39,17.92C553.88,30.28,591,34,591,34
		c-9-28,18-34,18-34s-12,20,4,35c0,0,16-42,94-30c0,0-17.24,11.77-30.18,26.6C718.15,15.81,741,35,741,35c-22,3-29,11-29,11
		s17-2,40.38,25c0,0-10.38-5-25.38-2c0,0,19-3,33,44c3.98,13.36,4.4,27.06,21,29c0,0-18.98,1.96-28.88-7.35
		c-0.54,13.62,3.36,41.12,42.47,46.35c0,0-13.6,21-55.6,21c0,0,3,6,24,5c0,0-18.75,18.08-47.49,17.52l-6.42-1.3l-13.75-2.78
		l-19.02-3.84c-0.52,0.38-1.04,0.76-1.58,1.13c-0.22,0.15-0.45,0.3-0.67,0.46c-0.44,0.3-0.87,0.6-1.31,0.89
		c-0.34,0.23-0.7,0.45-1.05,0.67c-1.04,0.67-2.1,1.32-3.17,1.96c-1.43,5.77-3.34,10.37-4.96,13.61c-1.76,3.52-3.16,5.44-3.19,5.47
		l-0.12,0.18c-0.01,0.02-0.11,0.18-0.29,0.45c-0.09,0.13-0.19,0.28-0.32,0.47c-0.3,0.43-0.72,1-1.25,1.67
		c-0.38,0.48-0.82,1.01-1.32,1.58c-4.68,5.35-14.67,14.23-30.91,16.76c-2.85,0.45-5.88,0.71-9.12,0.71c-1.31,0-2.65-0.05-4.02-0.13
		l2.86-8.42c-0.81,0.06-1.67,0.1-2.57,0.1c-3.69,0-8.07-0.59-12.37-2.58l0.74,8.81c-1.07-0.4-2.12-0.85-3.09-1.39
		c-1.54-0.84-2.95-1.83-4.25-2.99c-0.87-0.77-1.67-1.63-2.43-2.55c-0.24-0.29-0.49-0.55-0.71-0.85c-0.74-0.98-1.4-2.02-1.99-3.09
		c-3.16-5.69-4.33-12.37-4.67-17.89c-0.11-1.71-0.13-3.31-0.11-4.73c0.01-0.51,0.02-1,0.03-1.46c-0.46-0.43-0.91-0.87-1.36-1.31
		c-0.15-0.15-0.31-0.3-0.46-0.45c-0.18-0.18-0.35-0.36-0.53-0.54c0,0,0,0-0.01-0.01c-0.45-0.47-0.9-0.95-1.34-1.43
		c-0.01-0.01-0.02-0.02-0.03-0.03c-0.02-0.02-0.04-0.04-0.06-0.06c0,0.04-0.01,0.08-0.01,0.12l-0.23,0.19
		c-1.02,0.84-18.82,15.55-31.41,30.12c-0.34,0.39-0.68,0.78-1.01,1.17c-0.33,0.4-0.66,0.79-0.99,1.19
		c-1.11,1.34-2.16,2.68-3.14,3.99c-9.49-3.02-17.11-6.34-23.23-9.79c-0.44-0.25-0.87-0.5-1.3-0.75c-0.44-0.26-0.87-0.51-1.29-0.77
		C500.01,236.04,496.26,224.06,494.13,217.26z M649.67,230.8c-14.1,5.37-29.01,8.17-41.66,7.39c-3.44-0.32-7.37-1-10.48-3
		c-0.57-0.38-1.15-0.77-1.73-1.16l0.54,0.49c0.75,0.67,0.87,1.78,0.33,2.59l0.21,0.06l0.11,1.43c0.89,0.6,1.89,1.08,3,1.4l0.57,6.82
		c5.98,3.57,12.61,3.57,16.75,3.06L620,242C620,242,636.17,244.54,649.67,230.8z M684.8,209.86c-0.03-0.07-0.05-0.13-0.08-0.2
		c-0.01,0.01-0.02,0.02-0.02,0.02L684.8,209.86z M706.91,142.17c0.47,0.85,0.96,1.7,1.47,2.54c0.49,0.81,0.98,1.62,1.5,2.42
		c2.52,3.93,5.35,7.67,8.38,11.19c0.57-0.27,1.15-0.51,1.74-0.73c0.62-0.23,1.25-0.43,1.89-0.59c-3.82-4.06-7.35-8.44-10.45-13.07
		c-0.2-0.3-0.41-0.6-0.61-0.9c-0.65-0.99-1.27-2-1.88-3.02C702.23,128.8,698.03,116.24,698,103c0,0,0,0,0,0
		C696.54,116.77,700.27,130.2,706.91,142.17z M577.17,208.1c1.07,1.68,2.19,3.32,3.37,4.92c1.35,1.83,2.78,3.6,4.32,5.27
		c0.42,0.46,0.85,0.91,1.29,1.36c1.61,1.65,3.32,3.2,5.16,4.63c2.54,2.07,5.67,4.15,8.42,6.02c0.79,0.53,1.64,1.08,2.56,1.39
		c3.92,1.42,8.63,1.54,12.89,1.41c16.82-0.82,33.45-6.19,48.44-13.97c0.93-0.48,1.85-0.97,2.76-1.47c0.37-0.2,0.74-0.39,1.1-0.6
		c0.1-0.05,0.19-0.11,0.28-0.16c0.89-0.49,1.77-0.99,2.65-1.51c3.12-1.82,6.17-3.74,9.18-5.77c1.5-1.01,2.99-2.05,4.47-3.11
		c0.69-0.5,1.39-1,2.08-1.51c0.52-0.38,1.04-0.76,1.55-1.15c0.09-0.07,0.18-0.14,0.27-0.21c0.89-0.67,1.77-1.35,2.65-2.04l0.77,0.77
		c-1.07,1.39-2.23,2.75-3.47,4.08c0.02,0.06,0.04,0.12,0.05,0.18c0.02,0.1,0.98,4.91,5.23,7.02c1.62,0.81,3.53,1.14,5.7,1.02
		c3.17-0.17,6.92-1.33,11.21-3.47c18.17-9.09,22.99-20.82,23.03-20.94c0.08-0.18,3.96-9.01,4.12-17.03c0.01-0.34,0.01-0.68,0-1.01
		c-0.01-0.55-0.04-1.09-0.09-1.62c-0.16-1.63-0.52-3.17-1.16-4.54c-0.93-2.01-2.38-3.46-4.39-4.4c-0.53-0.25-1.09-0.47-1.71-0.65
		c-1.5-0.44-3.04-0.59-4.57-0.5c-0.78,0.05-1.55,0.16-2.3,0.33c-0.62,0.14-1.23,0.33-1.83,0.56c-0.04,0.02-0.09,0.03-0.13,0.05
		c-0.91,0.35-1.79,0.8-2.62,1.34c-0.66,0.43-1.3,0.91-1.9,1.44c-0.54,0.48-1.05,1.01-1.53,1.57c-0.05,0.06-0.1,0.11-0.14,0.16
		l-18.76,22.93l-0.05,0.06l0.28-1.18l1.7-7.22l4.74-20.53c0.61,0.33,1.22,0.65,1.83,0.97c0.61,0.32,1.22,0.63,1.84,0.94
		c1.56,0.78,3.14,1.53,4.73,2.23l0.61-0.74c0.24-0.29,0.48-0.56,0.73-0.83c0.5-0.54,1.03-1.05,1.57-1.53
		c-2.28-0.95-4.53-1.95-6.74-3.03c-0.05-0.02-0.09-0.04-0.14-0.07c-0.57-0.28-1.13-0.6-1.69-0.89c-0.61-0.32-1.22-0.63-1.83-0.96
		C681.11,143.89,662.8,123.79,653,100c-15,24-8,60-8,60c-20.47-19.36-29.3-35.96-32.09-49.41c-1.04-8.33-0.56-16.9,1.67-24.99
		c0.02-0.09,0.04-0.18,0.07-0.26c0.16-0.56,0.34-1.11,0.52-1.67c0.23-0.74,0.48-1.48,0.75-2.22c1.31-3.63,2.99-7.14,5.09-10.45
		c-2.51,2.62-4.59,5.55-6.3,8.68c-0.58,1.07-1.12,2.16-1.62,3.28c-0.38,0.85-0.73,1.72-1.05,2.6c-13.15,0.11-41.07,5.13-49.42,44.34
		c-0.25,6.74-0.3,13.52-0.14,20.24c0.49,13.81,1.37,27.86,5.8,40.93c0.75,2.09,1.68,4.17,2.73,6.13
		C572.91,200.9,574.93,204.58,577.17,208.1z M482.91,322.58c-1.3,0-2.55-0.07-3.74-0.17c3.07,5.12,6.65,9.19,10.83,11.59
		c4.57,2.61,9.09,3.71,13.45,3.71c13.4,0,25.31-10.32,32.7-18.58l-0.98-4.96c-0.09-0.48-0.17-0.97-0.22-1.46
		c-2.04-18.54-2.84-31.8,3.43-45.38c0.81-1.75,1.88-3.6,3.14-5.51c-9.25-3.01-16.75-6.33-22.87-9.77l-10.99,18.51l9.23,8.97
		l0.73,0.71l0.3,0.97c0.19,0.61,4.43,15.02-10.98,31.53C500.91,319.18,492.6,322.58,482.91,322.58z"/>
	<g>
		
			<linearGradient id="SVGID_00000067956005140053671260000001071414678825667752_" gradientUnits="userSpaceOnUse" x1="0" y1="375" x2="1200" y2="375">
			<stop  offset="0" style="stop-color:#B4CBE3"/>
			<stop  offset="0.0733" style="stop-color:#AEC5DF"/>
			<stop  offset="0.1753" style="stop-color:#9FB3D3"/>
			<stop  offset="0.2943" style="stop-color:#8595C1"/>
			<stop  offset="0.4248" style="stop-color:#626CA7"/>
			<stop  offset="0.5397" style="stop-color:#3D428C"/>
			<stop  offset="0.5623" style="stop-color:#33387E"/>
			<stop  offset="0.6361" style="stop-color:#181A54"/>
			<stop  offset="0.6943" style="stop-color:#06073B"/>
			<stop  offset="0.729" style="stop-color:#000031"/>
			<stop  offset="0.7874" style="stop-color:#151751"/>
			<stop  offset="0.876" style="stop-color:#32367B"/>
			<stop  offset="0.9212" style="stop-color:#3D428C"/>
			<stop  offset="1" style="stop-color:#B4CBE3"/>
		</linearGradient>
		<rect y="365" style="fill:url(#SVGID_00000067956005140053671260000001071414678825667752_);" width="1200" height="20"/>
	</g>
	<g>
		<g>
			<path class="st2" d="M181.44,405.32c9.2,0,13.9,2.4,17,5c5.1,4.3,6.6,10,6.6,15c0,6.5-2.6,12.2-7.8,15.7
				c-1.7,1.2-4.1,2.3-7.3,2.9l20.8,28.1h-16.2l-17.8-26.8h-1.6v26.8h-13v-66.7H181.44z M175.14,436.03h3.7c2.5,0,12.8-0.3,12.8-10.1
				c0-9.9-10.2-10-12.6-10h-3.9V436.03z"/>
			<path class="st2" d="M291.23,458.03h-26.9l-5.9,14h-14.1l28.7-66.7h10.2l27.9,66.7h-14L291.23,458.03z M287.43,447.43l-9.5-24
				l-9.5,24H287.43z"/>
			<path class="st2" d="M347.65,472.03v-66.7h9l40.6,44.5v-44.5h13v66.7h-9l-40.6-44.6v44.6H347.65z"/>
			<path class="st2" d="M471.82,405.32c9.3,0,17.4,1,24.8,6.5c8.1,6.1,12.8,15.8,12.8,26.9s-4.6,20.7-13.4,26.9
				c-7.8,5.5-15.1,6.4-24.4,6.4h-17.2v-66.7H471.82z M467.42,460.83h4c3.3,0,10.5-0.2,16.3-4.4c5.3-3.8,8.3-10.6,8.3-17.7
				c0-7-2.9-13.8-8.2-17.8c-5.4-4-12-4.4-16.4-4.4h-4V460.83z"/>
			<path class="st2" d="M617.61,438.73c0,20.3-14.6,34.8-35.6,34.8c-21,0-35.6-14.5-35.6-34.8c0-20.3,14.6-34.9,35.6-34.9
				C603.01,403.82,617.61,418.42,617.61,438.73z M604.21,438.73c0-13.5-9.2-23.1-22.2-23.1s-22.2,9.6-22.2,23.1s9.2,23,22.2,23
				S604.21,452.23,604.21,438.73z"/>
			<path class="st2" d="M663.9,405.32h9.4l17.7,42.4l18.5-42.4h9.4l11.2,66.7h-13.2l-6-41.1l-17.9,41.1h-4.4l-17.1-41.1l-6.8,41.1
				h-13.2L663.9,405.32z"/>
			<path class="st2" d="M783.32,405.32v66.7h-13v-66.7H783.32z"/>
			<path class="st2" d="M842.18,460.83h30.8v11.2h-52.4l32.4-55.5h-27.3v-11.2h48.9L842.18,460.83z"/>
			<path class="st2" d="M949.25,416.52h-24v14.9h23v11.2h-23v18.2h24v11.2h-37v-66.7h37V416.52z"/>
			<path class="st2" d="M1010.83,405.32c9.2,0,13.9,2.4,17,5c5.1,4.3,6.6,10,6.6,15c0,6.5-2.6,12.2-7.8,15.7
				c-1.7,1.2-4.1,2.3-7.3,2.9l20.8,28.1h-16.2l-17.8-26.8h-1.6v26.8h-13v-66.7H1010.83z M1004.53,436.03h3.7
				c2.5,0,12.8-0.3,12.8-10.1c0-9.9-10.2-10-12.6-10h-3.9V436.03z"/>
		</g>
	</g>
</g>
</svg>
